<mxfile host="65bd71144e" modified="2020-11-22T18:54:54.809Z" agent="5.0 (Windows NT 10.0; Win64; x64) AppleWebKit/537.36 (KHTML, like Gecko) Code/1.51.1 Chrome/83.0.4103.122 Electron/9.3.3 Safari/537.36" version="13.6.5" etag="nfGf0xHUHxotILeE16yq">
    <diagram id="ep0rJgK5KmxrIyld0C4R" name="Page-1">
        <mxGraphModel dx="986" dy="379" grid="1" gridSize="10" guides="1" tooltips="1" connect="1" arrows="1" fold="1" page="1" pageScale="1" pageWidth="827" pageHeight="1169" math="0" shadow="0">
            <root>
                <mxCell id="0"/>
                <mxCell id="1" parent="0"/>
                <mxCell id="9" value="" style="edgeStyle=orthogonalEdgeStyle;rounded=0;orthogonalLoop=1;jettySize=auto;html=1;" edge="1" parent="1" source="2" target="4">
                    <mxGeometry relative="1" as="geometry"/>
                </mxCell>
                <mxCell id="2" value="Lecture du fichier php" style="shape=ellipse;html=1;dashed=0;whitespace=wrap;perimeter=ellipsePerimeter;" vertex="1" parent="1">
                    <mxGeometry x="336" y="20" width="156" height="50" as="geometry"/>
                </mxCell>
                <mxCell id="3" value="Ignore le HTML" style="shape=ellipse;html=1;dashed=0;whitespace=wrap;perimeter=ellipsePerimeter;" vertex="1" parent="1">
                    <mxGeometry x="364" y="100" width="100" height="50" as="geometry"/>
                </mxCell>
                <mxCell id="8" value="" style="edgeStyle=orthogonalEdgeStyle;rounded=0;orthogonalLoop=1;jettySize=auto;html=1;" edge="1" parent="1" source="4" target="6">
                    <mxGeometry relative="1" as="geometry"/>
                </mxCell>
                <mxCell id="4" value="Exécute le code PHP à l'intérieur de la balise &amp;lt;?php ?&amp;gt;" style="shape=ellipse;html=1;dashed=0;whitespace=wrap;perimeter=ellipsePerimeter;" vertex="1" parent="1">
                    <mxGeometry x="249" y="180" width="330" height="90" as="geometry"/>
                </mxCell>
                <mxCell id="5" value="Joindre le HTML et les resultats du PHP" style="shape=ellipse;html=1;dashed=0;whitespace=wrap;perimeter=ellipsePerimeter;" vertex="1" parent="1">
                    <mxGeometry x="286" y="300" width="256" height="50" as="geometry"/>
                </mxCell>
                <mxCell id="6" value="Produit un affichage final" style="shape=ellipse;html=1;dashed=0;whitespace=wrap;perimeter=ellipsePerimeter;" vertex="1" parent="1">
                    <mxGeometry x="336" y="380" width="156" height="50" as="geometry"/>
                </mxCell>
            </root>
        </mxGraphModel>
    </diagram>
</mxfile>